<?xml version="1.0" encoding="utf-8"?>
<!DOCTYPE svg PUBLIC "-//W3C//DTD SVG 1.0//EN" "http://www.w3.org/TR/2001/REC-SVG-20010904/DTD/svg10.dtd">
<svg version="1.0" xmlns="http://www.w3.org/2000/svg" width="512px" height="512px" viewBox="0 0 512 512" preserveAspectRatio="xMidYMid meet">
 <g fill="#fdfbe8">
  <path d="M495 381.9 c-12.4 -3.5 -39.9 -8.3 -56 -9.8 -6.3 -0.6 -22.5 -1.6 -36 -2.1 -13.5 -0.6 -30.3 -1.5 -37.5 -2 -7.1 -0.5 -19.2 -1 -26.7 -1 l-13.8 0 0 -3.3 c0 -3.9 1 -4.9 10 -10.2 12.2 -7.2 28.9 -20.6 39.8 -32 21.4 -22.2 28.7 -32.3 74 -101.5 14.9 -22.8 29.5 -38.1 42.2 -44.5 2.5 -1.2 5.9 -3 7.5 -3.9 1.7 -0.9 3.8 -1.6 4.7 -1.6 0.9 0 2 -0.4 2.3 -1 0.3 -0.5 1.9 -1 3.6 -1 l2.9 0 0 108.5 0 108.5 -3.2 -0.1 c-1.8 0 -8 -1.4 -13.8 -3z"/>
  <path d="M248.5 353.6 c-4 -1.7 -8.2 -6.7 -9.5 -11.4 -0.6 -2 -1.5 -10 -2 -17.7 -1.6 -24.5 -5.6 -35.4 -21.5 -58.6 -15.2 -22 -20.2 -35.7 -21.2 -57.5 -1.2 -25.6 7.6 -48.4 25 -65.1 6.7 -6.4 15.1 -12.3 17.6 -12.3 0.8 0 2.2 -0.7 3.2 -1.6 6.4 -5.8 38.2 -9.3 53.4 -5.9 14.5 3.2 25.3 8.7 35.6 18.2 18.9 17.5 28.1 42.6 26.6 72.2 -1 18.6 -5.5 31.5 -18.1 51.5 -14.3 22.8 -16.4 29.4 -17.6 56.1 -0.9 21.4 -2 25.5 -7.6 30.5 -3 2.6 -4.2 3 -9.5 3 -12.8 0 -12.9 -0.4 -12.9 -38.2 0 -33.4 -0.9 -45.3 -4 -54.2 -3.1 -9.2 -2.9 -10 5 -17.6 4.8 -4.6 7.8 -8.5 9.9 -13 4.1 -8.6 4.7 -13.4 2.7 -22.4 -3 -13.2 -11.8 -24 -24.5 -29.9 -5.7 -2.7 -7.7 -3.1 -15.1 -3.1 -8.5 0 -9.7 0.3 -20 5.2 -5.7 2.7 -13.8 11.5 -17 18.4 -5.8 12.3 -5.6 20.6 0.5 33.4 4.7 9.6 17.5 19.6 28.8 22.4 l4.5 1.2 2.6 9.7 c4.7 17.7 5.7 27.9 5.4 56.2 -0.3 24.4 -0.4 25.9 -2.4 28.6 -1.9 2.5 -2.8 2.8 -8.5 3 -3.7 0.2 -7.7 -0.3 -9.4 -1.1z"/>
  <path d="M272.8 341.3 c-0.2 -7.1 -0.2 -15.3 -0.1 -18.3 0.5 -13.2 -1.6 -33.6 -4.7 -46.4 -1.7 -7.1 -3 -14.5 -2.8 -16.5 0.3 -4.1 2 -4.8 10.5 -5 l5.1 -0.1 2.2 6.6 c3.1 9.1 3.9 21.9 3.9 60.2 l0.1 32.2 -7 0 -7 0 -0.2 -12.7z"/>
 </g>
 <g fill="#fbbc04">
  <path d="M0 421.1 l0 -91 4.9 -5.8 c6.2 -7.4 21.1 -22 27.6 -27 18.2 -14.2 45.5 -26.8 66.6 -30.8 10.2 -1.9 33 -2 41.9 -0.1 20.2 4.3 41.6 15.2 60.8 30.9 4.1 3.3 12.9 11.1 19.6 17.3 l12.3 11.3 0.5 6.3 c0.6 7.7 4.3 15.3 9.9 20.8 4.1 4 11.2 8 14.2 8 1.3 0 1.7 0.9 1.7 3.8 0 2.1 -0.5 4.3 -1.1 4.9 -0.8 0.8 -0.4 1.6 1.5 2.8 1.9 1.3 2.6 2.6 2.6 4.9 0 2.8 -0.5 3.4 -4.2 5 -2.4 1 -5.5 2.4 -7 3.1 -1.5 0.8 -4.2 1.7 -6 2 -1.8 0.4 -4.5 1.6 -6 2.6 -1.4 1.1 -3 1.9 -3.5 1.9 -1.5 0 -15.4 7 -20.8 10.5 -17.6 11.3 -21.9 14.4 -30 21.3 -25.1 21.4 -42.3 43.5 -57.2 73.3 l-7.5 14.9 -60.4 0 -60.4 0 0 -90.9z"/>
  <path d="M19.4 214.6 c-4.2 -1.3 -12 -6.2 -14.3 -9 -0.8 -0.9 -2.2 -1.6 -3.2 -1.6 -1.8 0 -1.9 -2.6 -1.9 -87.5 0 -73.9 0.2 -87.5 1.4 -87.5 0.7 0 4 1.8 7.3 3.9 3.2 2.2 12.9 7.7 21.4 12.2 39.9 21.2 41.4 25.1 25.9 71.1 -10.1 30.1 -14.8 48 -16.3 62.5 -1 9.9 -0.9 12 0.8 19 1 4.3 1.9 10.1 1.9 12.8 l0.1 5 -9.5 0.2 c-5.6 0.1 -11.2 -0.3 -13.6 -1.1z"/>
  <path d="M427.9 182.1 c-16.9 -6.6 -41 -31.3 -64.4 -66.1 -13.8 -20.4 -18.6 -26.9 -24.6 -32.9 -17.3 -17.2 -33.8 -25.1 -49.9 -23.6 -12.1 1 -28.9 7.4 -38.5 14.5 -6.6 4.9 -12.6 8 -15.5 8 -1.5 0 -6.1 -2 -10.2 -4.5 -4.1 -2.5 -10.1 -5.6 -13.3 -7 -5.6 -2.2 -6 -2.6 -6.3 -5.9 -0.3 -3.2 0.1 -3.8 4 -6.2 18.3 -11.6 44.3 -22.1 82.8 -33.4 17 -5 35.2 -11.1 39.4 -13.2 5.3 -2.7 8.6 -6.2 8.6 -9.3 l0 -2.5 86 0 86 0 0 38.3 0 38.2 -7.5 16.5 c-4.1 9.1 -12 27.1 -17.5 40 -6.7 15.8 -11.8 26.1 -15.4 31.5 -6.5 9.5 -8.2 11.2 -16 15.9 -5.6 3.4 -6.5 3.6 -14.5 3.6 -5.8 -0.1 -10.1 -0.7 -13.2 -1.9z"/>
 </g>
 <g fill="#2b9bdf">
  <path d="M210 509 c0 -3.4 6.5 -18.8 13.3 -31.2 17.1 -31.4 46.2 -58.2 82.2 -75.8 19.4 -9.4 32.7 -13 48.5 -13 l9 0 0 -3.9 c0 -2.2 0.4 -4.2 0.9 -4.5 0.5 -0.4 3.8 -0.9 7.3 -1.2 3.4 -0.4 6.8 -1 7.3 -1.4 0.6 -0.5 8.1 -1.8 16.8 -3 13.7 -1.9 18.7 -2.2 36.5 -1.7 23.7 0.6 37.9 2.6 63.5 8.8 l16.7 4.1 0 57.9 c0 50.4 -0.2 57.9 -1.5 57.9 -1.1 0 -1.2 0.5 -0.5 2.6 0.6 1.4 1 3.6 1 5 l0 2.4 -150.5 0 -150.5 0 0 -3z"/>
  <path d="M0 266 l0 -63 2.5 0 c1.5 0 4.7 1.8 7.8 4.3 11.6 9.5 24.8 11.8 35.8 6.4 14.8 -7.2 30.5 -25.5 55.4 -64.7 27.3 -43 46.2 -65.8 61.2 -73.7 9.8 -5.2 16.3 -6.6 30.8 -6.7 25.3 -0.2 32.6 4.1 60.8 35.6 5.5 6.2 6.7 8.1 6.7 11 0 3.4 0 3.4 -7.7 5.7 -26.9 7.9 -48.4 29.3 -58.1 57.8 -3.2 9.4 -4.5 19.6 -3.9 31.3 0.9 17.7 7.2 33.5 21.7 54 15 21.4 19 30.9 19.8 47.8 l0.5 10.2 -2.9 0 c-2.3 0 -5.1 -2.1 -13.4 -10.1 -16 -15.5 -38.4 -31.3 -53.6 -38 -9.3 -4.1 -21.8 -7.9 -30.7 -9.4 -30.5 -5.4 -79.5 14.1 -110.2 43.7 -5.7 5.4 -12.2 12.3 -14.5 15.3 -2.5 3.2 -5 5.5 -6.1 5.5 -1.8 0 -1.9 -2 -1.9 -63z"/>
 </g>
 <g fill="#003e70">
  <path d="M308 361.7 c0 -2.7 0.8 -4 4.6 -7.1 7.8 -6.6 9.1 -10.8 9.7 -32.7 0.9 -28 3.2 -35.9 16.4 -56.5 12.3 -19.1 18.1 -33.2 20.3 -49.4 2.6 -19.2 -3.6 -42.7 -16.1 -61.1 -5.7 -8.4 -18 -20.6 -25.1 -24.7 -15.2 -8.9 -29.3 -13.1 -44.3 -13.2 l-9 0 -11.5 -13.1 c-6.3 -7.2 -12.7 -14 -14.2 -15.1 -2.2 -1.5 -2.8 -2.7 -2.8 -5.6 0 -3.6 0.3 -3.9 8.3 -8.9 9.3 -5.9 20.3 -10.6 29.5 -12.8 9.5 -2.2 30.4 -2 37.3 0.4 18.6 6.4 29.4 16.8 51.4 49.6 14.6 21.7 23.7 33.2 37.8 47.3 16.2 16.4 28.5 24 40.2 24.9 6 0.5 6.5 0.4 12.1 -3.4 7.8 -5.4 15.1 -13.2 20.3 -22 2.3 -3.9 8.9 -18.1 14.7 -31.5 17 -39.2 18.8 -42.8 21.8 -42.8 l2.6 0 0 40.9 0 40.9 -10.2 5 c-11.2 5.5 -20.8 13 -32 25.1 -6.1 6.6 -12.7 16 -38.7 55.6 -24.5 37.4 -36.1 52.4 -53.6 70.1 -17.3 17.3 -31.7 28.4 -50.5 38.8 -6.9 3.9 -9.1 4.6 -13.6 4.6 l-5.4 0 0 -3.3z"/>
 </g>
 <g fill="#070b19">
  <path d="M117 511.4 c0 -0.4 3.5 -7.7 7.8 -16.3 15.3 -30.7 32.3 -52.7 57.7 -74.3 8.1 -6.9 12.4 -10 30 -21.3 5.4 -3.5 19.3 -10.5 20.8 -10.5 0.5 0 2.1 -0.8 3.5 -1.9 1.5 -1 4.2 -2.2 6 -2.6 1.8 -0.3 4.5 -1.2 6 -2 1.5 -0.7 4.6 -2.1 6.9 -3 l4.1 -1.8 -3.4 -3.2 c-3.9 -3.8 -4.1 -4.5 -1.4 -7 2.4 -2.2 2.6 -3.5 0.3 -3.5 -3 0 -10.1 -4 -14.2 -8 -5.6 -5.5 -9.3 -13.1 -9.9 -20.8 l-0.5 -6.3 -12.3 -11.3 c-27.5 -25.4 -45.3 -37.2 -67.4 -44.6 -15.5 -5.2 -33.1 -6.5 -48.9 -3.5 -21.1 4 -48.4 16.6 -66.6 30.7 -7.5 5.8 -23 21.3 -29.6 29.6 l-5.9 7.3 0 -5.1 c0 -4.7 0.5 -5.8 5 -11.4 26.3 -33.1 71.5 -57.4 112 -60.1 19.1 -1.3 41.5 5 63.4 17.9 13.1 7.7 27.6 18.9 39.5 30.3 l10.4 10 -0.6 -7.2 c-1 -13.9 -5.9 -24.8 -19.7 -44.5 -9.1 -12.8 -14.3 -22.6 -18.1 -34 -5.4 -16.1 -5.3 -41.2 0.3 -57.3 6.2 -18.2 17.8 -34.3 32.8 -45.4 8.1 -6 13.6 -8.8 23.6 -11.8 4.9 -1.5 9.1 -2.9 9.3 -3.1 0.5 -0.5 -11.3 -13.7 -22.9 -25.5 -14 -14.3 -23.1 -18.3 -41 -18.3 -11.8 0.1 -19.1 1.8 -28.3 6.7 -15 7.9 -33.9 30.7 -61.2 73.7 -24.9 39.2 -40.5 57.4 -55.4 64.8 -5 2.4 -6.7 2.7 -15.6 2.7 -11.7 -0.1 -17.5 -2.1 -26.2 -9.2 -2.9 -2.4 -5.8 -4.3 -6.4 -4.3 -0.5 0 -0.9 -1.2 -0.7 -2.8 0.5 -4.3 4 -4.1 9.4 0.7 6.9 6 12.5 8.4 21.4 8.9 4.6 0.3 8 0 8.4 -0.6 0.3 -0.5 -0.3 -4.5 -1.4 -8.7 -5 -19.4 -1.2 -42 14.9 -90 8.7 -26 9.9 -31.8 8.2 -38.3 -2.3 -8.4 -9.3 -14 -34 -27.1 -8.5 -4.5 -17.9 -9.8 -21 -11.9 l-5.6 -3.7 -0.3 -16.3 -0.2 -16.2 171.7 0.2 171.8 0.3 0.3 2.2 c0.5 3.7 -2.6 8.1 -7.7 11.1 -4.9 2.7 -20.5 8.2 -41.1 14.2 -20.7 6.1 -38.4 12.1 -50.4 17.1 -18.7 7.8 -37.7 18.3 -36 19.8 0.5 0.4 3 1.5 5.6 2.5 2.6 0.9 8.3 3.9 12.8 6.6 l8 4.8 4.3 -2.4 c2.3 -1.3 6 -3.8 8.2 -5.4 15.8 -11.7 42.1 -17.8 58.5 -13.5 15.1 3.9 32.1 16.3 44.5 32.5 2.3 3 9.5 13.4 16 23 23.6 35.1 47.7 59.7 64.7 66.2 7.9 3 14.4 2.4 21.4 -1.8 7.9 -4.8 9.6 -6.5 16.3 -16.4 3.7 -5.6 8.7 -15.8 14.5 -29.5 8.7 -20.3 20.4 -47.1 24.2 -54.7 2.8 -5.9 4.4 -4.9 4.4 2.6 0 3.7 -0.5 6.8 -1.1 7.2 -1.5 0.9 -7.5 13.6 -20.3 43.2 -5.8 13.4 -12.4 27.6 -14.7 31.5 -5.2 8.8 -12.5 16.6 -20.3 21.9 l-5.8 4 -9.2 -0.4 c-7.7 -0.3 -10.1 -0.9 -15.2 -3.4 -10.5 -5.3 -16.6 -9.9 -28.1 -21.6 -14.1 -14.1 -23.2 -25.6 -37.8 -47.3 -22 -32.8 -32.8 -43.2 -51.4 -49.6 -3.8 -1.4 -8.2 -1.9 -15.2 -1.9 -11.1 0 -19.1 1.6 -29.9 6 -7.4 3.1 -24 12.8 -24 14.2 0 0.4 1.2 1.5 2.8 2.6 1.5 1.1 7.9 7.9 14.2 15.1 l11.5 13.1 9 0 c15 0.1 29.1 4.3 44.3 13.2 7.1 4.1 19.4 16.3 25.1 24.7 16.8 24.8 21.3 55.8 12.2 83.9 -3.7 11.3 -7.4 18.7 -16.4 32.6 -13.2 20.6 -15.5 28.5 -16.4 56.5 -0.7 22.2 -1.7 25.7 -9.7 32.6 -4.7 4.2 -4.9 4.5 -2.5 4.5 2.8 0 15 -6.4 25.8 -13.5 11.5 -7.6 23.2 -17.5 35.6 -29.9 17.5 -17.7 29.1 -32.7 53.6 -70.1 33.9 -51.6 37.2 -55.8 52.9 -69.3 7.3 -6.2 25.3 -16.2 29.2 -16.2 1.4 0 1.8 0.8 1.8 3.8 0 3 -0.5 3.9 -2.7 5 -1.5 0.6 -3.2 1.2 -3.7 1.2 -0.6 0 -2.4 0.7 -4.1 1.6 -1.6 0.9 -5 2.7 -7.5 3.9 -12.7 6.4 -27.3 21.7 -42.2 44.5 -45.3 69.2 -52.6 79.3 -74 101.5 -11.2 11.7 -27.7 24.9 -40.5 32.4 -11.8 6.9 -11.7 7.1 4.3 7.1 7.7 0 19.8 0.5 26.9 1 7.2 0.5 24 1.4 37.5 2 13.5 0.5 29.7 1.5 36 2.1 16.5 1.5 43.6 6.3 57.5 10.1 l12 3.3 0.3 3.9 c0.3 3.6 0.2 3.8 -2 3.2 -43.7 -12.4 -79.3 -16.1 -111.5 -11.6 -8.7 1.2 -16.2 2.6 -16.7 3.1 -0.6 0.5 -2.8 1 -5 1 -2.3 0.1 -5.4 0.4 -7 0.8 -3.7 0.8 -4.7 3.1 -1.4 3.1 5.3 0 19.8 4.4 29.4 9 10.6 5 18.2 9.7 34.8 21.4 5.6 4 17.4 11.8 26.2 17.4 26.1 16.5 33 24.1 46 50.6 6.1 12.2 6.9 14.6 7.2 20.7 0.4 6.3 0.3 6.9 -1.5 6.9 -1.5 0 -2.4 -1.4 -3.7 -5.7 -2.8 -8.6 -15.9 -33.9 -21.6 -41.5 -6.2 -8.2 -13.6 -14.1 -31.6 -25.5 -7.7 -4.9 -18.1 -11.7 -23.2 -15.3 -21 -14.7 -25 -17.3 -31.7 -20.7 -13.5 -6.9 -31.2 -11.3 -45.3 -11.3 -22 0 -56.5 15.7 -85.2 39 -22.4 18.1 -38.4 39.8 -51.2 69.5 l-4.8 11 -47.5 0.3 c-26.1 0.1 -47.5 -0.1 -47.5 -0.4z m146.4 -162.7 c2 -2.7 2.1 -4.3 2.4 -25.6 0.3 -25 -0.8 -35.9 -5.4 -53.2 l-2.6 -9.7 -4.7 -1.2 c-12.5 -3.1 -25.9 -14.6 -30.1 -25.7 -5.1 -13.7 -4.9 -23.5 0.9 -35.9 3.3 -7.1 11.4 -15.8 17.1 -18.6 11 -5.3 11.2 -5.3 23 -5.3 10.8 0 11.9 0.2 18.1 3.1 12.7 6 21.5 16.8 24.5 30.1 3.6 16.5 -0.3 29.5 -12.5 41.2 l-6.8 6.6 1.9 5.5 c2.9 8.5 3.8 20.9 3.8 53.8 0 25 0.3 30.8 1.5 33.2 3 5.9 9.5 6.7 14.9 2 5.6 -5 6.7 -9.1 7.6 -30.5 1.2 -26.7 3.3 -33.3 17.6 -56.1 11.8 -18.8 16.9 -32.5 18 -48.9 1.8 -25.7 -8.3 -51.9 -26.5 -68.8 -15.3 -14.1 -33.6 -20.6 -54.2 -19.3 -11.5 0.7 -25.7 4.2 -28.8 7 -1 0.9 -2.4 1.6 -3.2 1.6 -2.5 0 -10.9 5.9 -17.6 12.3 -16.6 15.9 -26.4 40.3 -25 62.2 0.7 10.2 4.2 24.3 8.6 33.9 1.6 3.6 7.3 12.8 12.6 20.5 15.9 23.2 19.9 34.1 21.5 58.6 0.5 7.7 1.4 15.7 2 17.7 3.1 10.9 16.1 16.6 21.4 9.5z m20.5 -26.9 c0 -35.5 -0.9 -48.3 -3.9 -57.3 l-2.2 -6.7 -4.2 0.6 c-2.2 0.4 -4.5 1.1 -4.9 1.5 -0.4 0.4 0.6 6.6 2.3 13.7 3.1 12.8 5.3 32.8 4.9 45.9 -0.1 3.3 -0.1 11.7 0 18.8 l0.1 12.7 4 0 4 0 -0.1 -29.2z"/>
 </g>
</svg>